# Blender 3.3.0
# www.blender.org
mtllib house1.mtl
o Cube
v 0.977836 1.098721 -0.672173
v 0.977836 0.000000 -0.672173
v 0.977836 1.098721 0.672173
v 0.977836 0.000000 0.672173
v -0.977836 1.098721 -0.672173
v -0.977836 0.000000 -0.672173
v -0.977836 1.098721 0.672173
v -0.977836 0.000000 0.672173
v 0.977836 1.770894 0.000000
v -0.977836 1.770894 0.000000
v 0.199672 0.000000 -0.672173
v -0.199672 0.000000 -0.672173
v -0.199672 0.737683 -0.672173
v 0.199672 0.737683 -0.672173
vn -0.0000 0.7071 0.7071
vn -0.0000 -0.0000 1.0000
vn -1.0000 -0.0000 -0.0000
vn 1.0000 -0.0000 -0.0000
vn -0.0000 0.7071 -0.7071
vn -0.0000 -0.0000 -1.0000
vt 0.625000 0.500000
vt 0.771699 0.500000
vt 0.625000 0.353301
vt 0.625000 0.396699
vt 0.522115 0.500000
vt 0.375000 0.500000
vt 0.375000 0.625000
vt 0.771699 0.750000
vt 0.625000 0.896699
vt 0.522115 0.625000
vt 0.522115 0.896699
vt 0.375000 0.750000
vt 0.875000 0.500000
vt 0.625000 0.250000
vt 0.522115 0.250000
vt 0.375000 0.250000
vt 0.875000 0.750000
vt 0.625000 1.000000
vt 0.522115 0.125000
vt 0.522115 1.000000
vt 0.375000 0.125000
vt 0.625000 0.625000
vt 0.771699 0.625000
vt 0.625000 0.125000
vt 0.875000 0.625000
vt 0.375000 0.396699
vt 0.375000 0.353301
vt 0.522115 0.353301
vt 0.522115 0.396699
s 0
usemtl roof
f 9/23/1 10/25/1 7/17/1 3/8/1
f 1/2/5 5/13/5 10/25/5 9/23/5
usemtl wall
f 4/11/2 3/9/2 7/18/2 8/20/2
f 7/19/3 10/24/3 5/15/3
f 1/1/4 9/22/4 3/10/4
f 5/14/6 1/3/6 13/28/6
f 13/28/6 1/4/6 14/29/6
f 6/16/6 5/15/6 13/28/6 12/27/6
f 2/6/4 1/5/4 3/10/4
f 11/26/6 14/29/6 1/5/6 2/6/6
f 2/7/4 3/10/4 4/12/4
f 8/21/3 7/19/3 5/15/3 6/16/3
usemtl door
f 12/27/6 13/28/6 14/29/6 11/26/6
