# Blender 3.3.0
# www.blender.org
mtllib house2.mtl
o Cube.001
v 0.977836 1.098721 -0.672173
v 0.977836 0.000000 -0.672173
v 0.977836 1.098721 0.672173
v 0.977836 0.000000 0.672173
v -0.977836 1.098721 -0.672173
v -0.977836 0.000000 -0.672173
v -0.977836 1.098721 0.672173
v -0.977836 0.000000 0.672173
v 0.977836 1.770894 0.000000
v -0.977836 1.770894 0.000000
v 0.977836 0.000000 0.000000
v 0.199672 0.000000 -0.672173
v -0.199672 0.000000 -0.672173
v -0.199672 0.737683 -0.672173
v 0.199672 0.737683 -0.672173
v 0.776058 1.357185 -0.413709
v 0.776058 1.581242 -0.189652
v 0.513207 1.357185 -0.413709
v 0.513207 1.581242 -0.189652
v 0.776058 1.790089 -0.413709
v 0.776058 1.790089 -0.189652
v 0.513207 1.790089 -0.413709
v 0.513207 1.790089 -0.189652
vn -1.0000 -0.0000 -0.0000
vn 1.0000 -0.0000 -0.0000
vn -0.0000 0.7071 -0.7071
vn -0.0000 -0.0000 -1.0000
vn -0.0000 0.7071 0.7071
vn -0.0000 -0.0000 1.0000
vn -0.0000 1.0000 -0.0000
vt 0.625000 0.396699
vt 0.522115 0.500000
vt 0.522115 0.625000
vt 0.522115 0.548065
vt 0.728301 0.500000
vt 0.625000 0.548065
vt 0.375000 0.500000
vt 0.728301 0.750000
vt 0.522115 0.853301
vt 0.522115 0.750000
vt 0.375000 0.853301
vt 0.375000 0.750000
vt 0.625000 0.353301
vt 0.522115 0.250000
vt 0.771699 0.500000
vt 0.875000 0.500000
vt 0.375000 0.250000
vt 0.771699 0.750000
vt 0.522115 0.896699
vt 0.522115 0.201935
vt 0.375000 0.896699
vt 0.375000 0.201935
vt 0.625000 0.625000
vt 0.728301 0.625000
vt 0.625000 0.589732
vt 0.625000 0.201935
vt 0.771699 0.625000
vt 0.875000 0.548065
vt 0.875000 0.589732
vt 0.375000 0.625000
vt 0.375000 0.548065
vt 0.375000 0.396699
vt 0.375000 0.353301
vt 0.522115 0.353301
vt 0.522115 0.396699
vt 0.728301 0.548065
vt 0.728301 0.589732
vt 0.771699 0.548065
vt 0.771699 0.589732
vt 0.728301 0.548065
vt 0.728301 0.589732
vt 0.771699 0.548065
vt 0.771699 0.589732
s 0
usemtl roof
f 17/37/3 19/39/3 10/27/3 9/24/3
f 9/24/5 10/27/5 7/18/5 3/8/5
f 1/5/3 5/15/3 18/38/3 16/36/3
f 1/6/3 16/36/3 17/37/3 9/25/3
f 5/16/3 10/28/3 18/38/3
f 18/38/3 10/29/3 19/39/3
usemtl wall
f 7/20/1 10/26/1 5/14/1
f 1/3/2 9/23/2 3/10/2
f 14/34/4 5/13/4 1/1/4 15/35/4
f 4/11/6 3/9/6 7/19/6 8/21/6
f 6/17/4 5/14/4 14/34/4 13/33/4
f 12/32/4 15/35/4 1/2/4 2/7/4
f 11/30/2 1/3/2 3/10/2 4/12/2
f 8/22/1 7/20/1 5/14/1 6/17/1
f 2/7/2 1/4/2 11/31/2
f 16/36/4 18/38/4 22/42/4 20/40/4
f 20/40/7 22/42/7 23/43/7 21/41/7
f 18/38/1 19/39/1 23/43/1 22/42/1
f 17/37/2 16/36/2 20/40/2 21/41/2
f 19/39/6 17/37/6 21/41/6 23/43/6
usemtl door
f 13/33/4 14/34/4 15/35/4 12/32/4
