# Blender 3.3.0
# www.blender.org
mtllib house3.mtl
o Cube.002
v 0.977836 1.098721 -0.672173
v 0.977836 0.000000 -0.672173
v 0.977836 1.098721 0.672173
v 0.977836 0.000000 0.672173
v -0.977836 1.098721 -0.672173
v -0.977836 0.000000 -0.672173
v -0.977836 1.098721 0.672173
v -0.977836 0.000000 0.672173
v 0.977836 1.770894 0.000000
v -0.977836 1.770894 0.000000
v 0.490358 0.000000 -0.672173
v 0.091014 0.000000 -0.672173
v 0.091014 0.737683 -0.672173
v 0.490358 0.737683 -0.672173
v -0.716115 0.773291 -0.672173
v -0.207583 0.755487 -0.672173
v -0.716115 0.367964 -0.672173
v -0.207583 0.359492 -0.672173
vn -0.0000 0.7071 0.7071
vn -0.0000 -0.0000 1.0000
vn -1.0000 -0.0000 -0.0000
vn 1.0000 -0.0000 -0.0000
vn -0.0000 0.7071 -0.7071
vn -0.0000 -0.0000 -1.0000
vt 0.522115 0.625000
vt 0.840566 0.500000
vt 0.625000 0.353301
vt 0.625000 0.396699
vt 0.522115 0.500000
vt 0.625000 0.284434
vt 0.625000 0.318867
vt 0.445004 0.625000
vt 0.445003 0.500000
vt 0.375000 0.625000
vt 0.840566 0.750000
vt 0.625000 0.965566
vt 0.522115 0.750000
vt 0.445004 0.750000
vt 0.445004 0.853301
vt 0.375000 0.750000
vt 0.875000 0.500000
vt 0.522115 0.250000
vt 0.625000 0.250000
vt 0.445004 0.250000
vt 0.375000 0.284434
vt 0.375000 0.250000
vt 0.375000 0.318867
vt 0.875000 0.750000
vt 0.625000 1.000000
vt 0.522115 0.125000
vt 0.445004 0.125000
vt 0.522115 1.000000
vt 0.375000 0.125000
vt 0.375000 0.853301
vt 0.625000 0.625000
vt 0.840566 0.625000
vt 0.625000 0.125000
vt 0.875000 0.625000
vt 0.445004 0.396699
vt 0.445004 0.353301
vt 0.375000 0.353301
vt 0.522115 0.353301
vt 0.522115 0.396699
vt 0.522115 0.284434
vt 0.522115 0.318867
vt 0.445004 0.284434
vt 0.445003 0.318867
s 0
usemtl roof
f 9/32/1 10/34/1 7/24/1 3/11/1
f 1/2/5 5/17/5 10/34/5 9/32/5
usemtl wall
f 3/12/2 7/25/2 8/28/2
f 7/26/3 10/33/3 5/18/3
f 1/1/4 9/31/4 3/13/4
f 16/41/6 1/3/6 13/38/6
f 13/38/6 1/4/6 14/39/6
f 18/43/6 16/41/6 13/38/6 12/36/6
f 11/35/6 14/39/6 1/5/6 2/9/6
f 5/18/6 15/40/6 17/42/6
f 5/19/6 1/6/6 15/40/6
f 15/40/6 1/7/6 16/41/6
f 6/21/6 17/42/6 18/43/6
f 6/22/6 5/20/6 17/42/6
f 8/29/3 7/27/3 5/20/3 6/22/3
f 2/10/4 1/8/4 3/14/4 4/16/4
f 6/23/6 18/43/6 12/37/6
f 4/16/2 3/15/2 8/30/2
usemtl door
f 12/36/6 13/38/6 14/39/6 11/35/6
f 17/42/6 15/40/6 16/41/6 18/43/6
