# Blender 3.3.0
# www.blender.org
mtllib boost.mtl
o Cube
v 0.000000 -0.807470 0.000000
v 0.000000 0.761919 0.000000
v -0.287847 -0.022775 0.287847
v -0.287847 -0.022775 -0.287847
v 0.287847 -0.022775 -0.287847
v 0.287847 -0.022775 0.287847
vn -0.9388 0.3444 -0.0000
vn -0.0000 0.3444 -0.9388
vn 0.9388 0.3444 -0.0000
vn -0.0000 0.3444 0.9388
vn -0.0000 -0.3444 0.9388
vn 0.9388 -0.3444 -0.0000
vn -0.0000 -0.3444 -0.9388
vn -0.9388 -0.3444 -0.0000
vt 0.375000 0.750000
vt 0.375000 0.500000
vt 0.375000 0.250000
vt 0.375000 0.000000
vt 0.625000 0.250000
vt 0.625000 0.500000
vt 0.625000 0.750000
vt 0.625000 1.000000
vt 0.500000 1.000000
vt 0.500000 0.000000
vt 0.500000 0.250000
vt 0.500000 0.500000
vt 0.500000 0.750000
s 0
usemtl Material.001
f 3/10/1 2/5/1 4/11/1
f 4/11/2 2/6/2 5/12/2
f 5/12/3 2/7/3 6/13/3
f 6/13/4 2/8/4 3/9/4
f 1/1/5 6/13/5 3/9/5
f 1/2/6 5/12/6 6/13/6
f 1/3/7 4/11/7 5/12/7
f 1/4/8 3/10/8 4/11/8
o Cube.001
v -0.038375 0.861963 0.038375
v -0.038375 1.260631 0.038375
v -0.038375 0.861963 -0.038375
v -0.038375 1.260631 -0.038375
v 0.038375 0.861963 0.038375
v 0.038375 1.260631 0.038375
v 0.038375 0.861963 -0.038375
v 0.038375 1.260631 -0.038375
v -0.120647 1.258309 0.120647
v 0.000000 1.656978 0.000000
v -0.120647 1.258309 -0.120647
v 0.120647 1.258309 0.120647
v 0.120647 1.258309 -0.120647
vn -1.0000 -0.0000 -0.0000
vn -0.0000 -0.0000 -1.0000
vn 1.0000 -0.0000 -0.0000
vn -0.0000 -0.0000 1.0000
vn -0.9571 0.2897 -0.0000
vn -0.0000 0.2897 -0.9571
vn 0.9571 0.2897 -0.0000
vn -0.0000 0.2897 0.9571
vt 0.375000 0.000000
vt 0.375000 1.000000
vt 0.625000 0.000000
vt 0.625000 1.000000
vt 0.375000 0.250000
vt 0.625000 0.250000
vt 0.375000 0.750000
vt 0.625000 0.750000
vt 0.375000 0.500000
vt 0.625000 0.500000
vt 0.375000 0.000000
vt 0.375000 1.000000
vt 0.625000 0.250000
vt 0.625000 0.500000
vt 0.625000 0.750000
vt 0.625000 1.000000
vt 0.375000 0.250000
vt 0.375000 0.750000
vt 0.375000 0.500000
s 0
usemtl Material.001
f 7/14/9 8/16/9 10/19/9 9/18/9
f 9/18/10 10/19/10 14/23/10 13/22/10
f 13/22/11 14/23/11 12/21/11 11/20/11
f 11/20/12 12/21/12 8/17/12 7/15/12
f 15/24/13 16/26/13 17/30/13
f 17/30/14 16/27/14 19/32/14
f 19/32/15 16/28/15 18/31/15
f 18/31/16 16/29/16 15/25/16
